<?xml version="1.0" encoding="UTF-8"?>
<svg width="58px" height="66px" viewBox="0 0 58 66" version="1.1" xmlns="http://www.w3.org/2000/svg" xmlns:xlink="http://www.w3.org/1999/xlink">
    <!-- Generator: Sketch 41.2 (35397) - http://www.bohemiancoding.com/sketch -->
    <title>Group 2</title>
    <desc>Created with Sketch.</desc>
    <defs>
        <linearGradient x1="43.3016509%" y1="-445.971217%" x2="50%" y2="90.5065255%" id="linearGradient-1">
            <stop stop-color="#FFFFFF" offset="0%"></stop>
            <stop stop-color="#8E8E8E" offset="100%"></stop>
        </linearGradient>
        <linearGradient x1="50%" y1="0%" x2="50%" y2="92.960257%" id="linearGradient-2">
            <stop stop-color="#FFFFFF" offset="0%"></stop>
            <stop stop-color="#8E8E8E" offset="100%"></stop>
        </linearGradient>
    </defs>
    <g id="Page-1" stroke="none" stroke-width="1" fill="none" fill-rule="evenodd">
        <g id="Group-2">
            <path d="M57.5,37.965 C57.5,54.599 44.377,65.58 29.26,65.58 C18.97,65.58 9.366,60.057 4.282,51.413 L4.887,51.386 C6.2,52.578 8.277,53.966 12.291,53.901 C17.061,53.837 17.936,53.026 22.146,51.145 C44.862,40.975 49.071,31.688 49.882,29.555 C50.693,27.422 51.895,23.968 50.638,20.14 C50.396,19.403 50.218,18.807 50.098,18.332 C47.08,14.96 44.081,13.107 43.178,12.548 C43.038,12.455 42.888,12.371 42.748,12.288 L43.188,12.548 C45.198,13.795 57.502,21.33 57.502,37.965 L57.5,37.965 Z" id="Shape" fill="#A8A8A8" opacity="0.2"></path>
            <path d="M22.155,51.135 C17.945,53.015 17.07,53.825 12.301,53.891 C8.288,53.957 6.211,52.571 4.898,51.377 L4.293,51.405 C1.89,47.363 0.503,42.622 0.503,37.453 C0.503,29.601 3.473,23.799 6.79,19.766 C6.9,19.636 7.003,19.506 7.115,19.384 C9.798,16.236 12.665,14.214 14.333,13.181 C14.865,12.866 15.199,12.669 15.432,12.548 C18.189,11.038 20.202,10.285 23.395,7.778 C23.515,7.686 23.637,7.592 23.749,7.49 C24.632,6.726 25.397,5.72 25.937,4.08 C26.262,3.102 26.504,1.912 26.653,0.422 C28.926,3.13 31.627,6.326 33.563,7.584 C34.253,8.031 34.943,8.432 35.631,8.786 L35.931,8.936 C38.174,10.062 40.438,10.881 42.738,12.269 L43.166,12.529 C44.069,13.089 47.068,14.941 50.086,18.313 C50.206,18.788 50.384,19.383 50.626,20.12 C51.9,23.957 50.699,27.412 49.889,29.545 C49.08,31.678 44.87,40.965 22.155,51.135 Z" id="Shape" fill="#FFFFFF" opacity="0.2" style="mix-blend-mode: screen;"></path>
            <path d="M43.176,12.538 C39.916,10.461 36.712,9.651 33.573,7.583 C31.635,6.316 28.933,3.113 26.68,0.421 C26.242,4.753 24.994,6.569 23.42,7.771 C20.225,10.286 18.213,11.031 15.457,12.541 C13.119,13.797 0.499,21.267 0.499,37.454 C0.499,42.624 1.886,47.364 4.269,51.414 C9.346,60.049 18.949,65.572 29.239,65.572 C44.365,65.572 57.479,54.592 57.479,37.958 C57.479,28.831 53.772,22.432 50.093,18.325 C47.077,14.943 44.078,13.108 43.175,12.54 L43.176,12.538 Z M50.803,19.878 C54.92,25.028 57.016,31.108 57.016,37.955 C57.016,41.923 56.261,45.667 54.771,49.103 C53.357,52.353 51.327,55.233 48.718,57.663 C43.568,62.469 36.656,65.113 29.243,65.113 C25.573,65.113 21.978,64.415 18.551,63.027 C15.179,61.667 12.153,59.73 9.535,57.253 C4.003,52.028 0.965,44.996 0.965,37.453 C0.965,30.737 3.145,24.758 7.448,19.7 C10.736,15.835 14.284,13.693 15.644,12.957 C16.314,12.594 16.929,12.267 17.534,11.96 C19.426,10.99 21.214,10.07 23.674,8.142 C24.986,7.145 26.384,5.562 26.979,1.557 C29.056,4.025 31.459,6.791 33.293,7.983 C34.923,9.063 36.6,9.818 38.211,10.545 C39.738,11.235 41.321,11.951 42.887,12.948 L42.943,12.985 C47.563,15.825 50.003,18.881 50.803,19.877 L50.803,19.878 Z" id="Shape" fill="#333333" opacity="0.5"></path>
            <path d="M26.98,1.678 C27.854,4.258 27.733,5.571 27.733,6.13 C27.733,6.69 27.426,8.207 26.42,8.962 C25.982,9.279 25.852,9.53 25.852,9.586 C25.852,9.836 26.42,10.024 26.42,10.592 C26.42,11.282 26.103,12.669 22.778,15.985 C19.453,19.301 14.675,22.263 10.978,24.088 C7.28,25.914 5.51,25.774 5.008,24.898 C4.506,24.022 5.193,22.068 7.522,19.506 L17.189,13.228 L26.353,6.83 L26.856,4.39" id="Shape" fill="#D9D9D9" opacity="0.5"></path>
            <g id="Group" transform="translate(6.000000, 1.000000)">
                <path d="M32.09,50.507 C33.096,50.507 34.167,50.572 34.92,51.075 C35.676,51.578 36.113,52.705 36.365,53.338 C36.615,53.972 36.365,54.344 35.862,54.596 C35.424,54.846 35.359,54.716 34.922,53.906 C34.482,53.096 34.102,52.276 31.912,52.276 C29.722,52.276 29.025,53.031 27.964,53.906 C26.902,54.782 26.521,55.099 26.139,54.596 C25.757,54.093 25.886,53.59 26.576,52.966 C27.266,52.342 28.401,51.336 29.464,50.889 C30.524,50.439 31.084,50.506 32.089,50.506 L32.09,50.507 Z M21.677,57.659 C22.934,58.664 24.817,59.484 28.83,59.484 C32.845,59.484 35.666,58.347 36.924,57.407 C37.492,56.969 37.744,57.342 37.799,57.594 C37.855,57.844 37.985,58.218 37.547,58.664 C37.231,58.981 34.353,60.994 30.953,61.3 C27.553,61.61 22.989,61.804 20.223,59.29 C19.785,58.85 19.907,58.22 20.223,57.967 C20.54,57.717 20.791,57.529 21.163,57.529 C21.537,57.537 21.48,57.537 21.676,57.659 L21.677,57.659 Z" id="Shape" fill="url(#linearGradient-1)"></path>
                <path d="M17.468,7.328 C14.638,9.461 11.88,10.774 11.256,11.091 C9.626,11.911 3.721,15.171 0.648,19.875 C-0.292,21.319 0.648,21.887 0.834,22.008 C1.021,22.128 3.164,22.38 7.734,19.623 C12.308,16.866 14.329,15.236 16.909,12.545 C18.286,11.101 18.482,10.282 18.482,9.909 C18.482,9.471 18.166,9.285 17.662,9.155 C17.412,9.09 17.346,8.968 17.662,8.782 C17.979,8.596 19.284,7.962 19.6,7.712 C19.918,7.462 21.427,6.455 21.482,4.825 C21.547,3.195 21.426,2.059 20.979,0.615 C20.41,4.758 19.154,6.006 17.468,7.328 Z M6.868,46.241 C6.933,41.343 11.516,36.769 17.29,36.705 C24.638,36.64 29.714,43.988 33.42,43.913 C36.56,43.849 42.586,37.701 45.538,37.701 C48.678,37.701 49.552,40.961 49.552,42.907 C49.552,44.845 48.929,48.365 47.419,50.563 C45.909,52.761 44.979,53.571 43.219,53.451 C40.955,53.264 36.439,46.241 33.549,46.101 C29.909,45.981 22.002,53.701 15.799,53.701 C12.036,53.701 10.899,53.134 9.652,52.323 C7.732,51.011 6.802,49.008 6.867,46.243 L6.868,46.241 Z" id="Shape" fill="url(#linearGradient-2)"></path>
            </g>
        </g>
    </g>
</svg>